<?xml version="1.0" standalone="no"?>
<!DOCTYPE svg PUBLIC "-//W3C//DTD SVG 20010904//EN"
 "http://www.w3.org/TR/2001/REC-SVG-20010904/DTD/svg10.dtd">
<svg version="1.0" xmlns="http://www.w3.org/2000/svg"
 width="743.000000pt" height="81.000000pt" viewBox="0 0 743.000000 81.000000"
 preserveAspectRatio="xMidYMid meet">

<g transform="translate(0.000000,81.000000) scale(0.100000,-0.100000)"
fill="#000000" stroke="none">
<path d="M405 729 c-3 -13 -32 -158 -64 -321 l-58 -298 62 0 61 0 29 153 c15
83 31 160 34 170 5 14 36 -20 140 -152 73 -94 136 -173 140 -175 4 -3 33 129
65 292 32 163 60 307 63 320 5 21 2 22 -55 22 -71 0 -61 17 -97 -175 -14 -77
-28 -146 -30 -153 -3 -8 -64 61 -141 160 -75 95 -138 175 -140 177 -1 2 -6 -7
-9 -20z"/>
<path d="M2227 743 c-3 -4 -87 -143 -187 -307 -100 -164 -184 -305 -187 -312
-4 -11 9 -14 58 -14 l64 0 28 50 28 50 99 0 98 0 7 -33 c14 -69 11 -67 81 -67
62 0 64 1 59 22 -3 13 -34 155 -70 317 -35 162 -66 296 -69 298 -2 2 -6 1 -9
-4z m-32 -380 l7 -43 -52 0 -52 0 23 38 c54 88 52 86 60 66 3 -11 10 -38 14
-61z"/>
<path d="M3817 743 c-3 -4 -87 -143 -187 -307 -100 -164 -184 -305 -187 -312
-4 -11 9 -14 58 -14 l64 0 28 50 28 50 99 0 98 0 7 -33 c14 -69 11 -67 81 -67
62 0 64 1 59 22 -3 13 -34 155 -70 317 -35 162 -66 296 -69 298 -2 2 -6 1 -9
-4z m-32 -380 l7 -43 -52 0 -52 0 23 38 c54 88 52 86 60 66 3 -11 10 -38 14
-61z"/>
<path d="M227 718 c-8 -32 -117 -594 -117 -602 0 -3 27 -6 60 -6 33 0 60 1 60
3 0 1 27 139 60 307 33 168 60 308 60 313 0 4 -27 7 -59 7 -53 0 -59 -2 -64
-22z"/>
<path d="M997 718 c-8 -32 -117 -594 -117 -602 0 -3 27 -6 60 -6 33 0 60 1 60
3 0 1 27 139 60 307 33 168 60 308 60 313 0 4 -27 7 -59 7 -53 0 -59 -2 -64
-22z"/>
<path d="M1390 731 c-95 -30 -198 -120 -245 -215 -40 -83 -46 -191 -15 -264
65 -150 251 -188 404 -83 l46 32 -32 45 c-17 24 -32 44 -32 44 -1 0 -23 -11
-50 -25 -137 -70 -260 21 -226 166 17 70 59 122 124 154 67 32 126 31 175 -4
l31 -22 50 43 49 43 -39 36 c-21 19 -56 41 -78 47 -43 13 -123 14 -162 3z"/>
<path d="M1777 718 c-8 -32 -117 -594 -117 -602 0 -3 27 -6 60 -6 33 0 60 1
60 3 0 1 27 139 60 307 33 168 60 308 60 313 0 4 -27 7 -59 7 -53 0 -59 -2
-64 -22z"/>
<path d="M2456 698 c-4 -24 -9 -53 -13 -65 -5 -22 -3 -23 66 -23 47 0 71 -4
71 -11 0 -7 -20 -115 -45 -241 -25 -126 -45 -234 -45 -239 0 -5 27 -9 59 -9
53 0 59 2 64 22 3 13 25 125 49 250 l43 228 72 0 71 0 11 50 c19 87 35 80
-193 80 l-203 0 -7 -42z"/>
<path d="M2957 718 c-8 -32 -117 -594 -117 -602 0 -3 27 -6 60 -6 33 0 60 1
60 3 0 1 27 139 60 307 33 168 60 308 60 313 0 4 -27 7 -59 7 -53 0 -59 -2
-64 -22z"/>
<path d="M3140 728 c0 -8 29 -149 65 -313 36 -165 65 -304 65 -310 0 -5 6 -3
13 5 17 18 377 615 377 624 0 3 -28 6 -62 6 l-63 -1 -100 -170 c-55 -94 -101
-165 -103 -157 -2 7 -17 83 -35 168 l-32 155 -63 3 c-47 2 -62 0 -62 -10z"/>
<path d="M4580 731 c-95 -30 -198 -120 -245 -215 -40 -83 -46 -191 -15 -264
65 -150 251 -188 404 -83 l46 32 -32 45 c-17 24 -32 44 -32 44 -1 0 -23 -11
-50 -25 -137 -70 -260 21 -226 166 17 70 59 122 124 154 67 32 126 31 175 -4
l31 -22 50 43 49 43 -39 36 c-21 19 -56 41 -78 47 -43 13 -123 14 -162 3z"/>
<path d="M5037 716 c-148 -61 -247 -205 -247 -358 0 -158 112 -260 271 -245
228 20 407 305 311 494 -62 120 -199 165 -335 109z m162 -124 c97 -52 94 -203
-6 -293 -101 -91 -237 -72 -274 38 -29 90 42 222 141 262 40 16 103 12 139 -7z"/>
<path d="M5484 425 l-60 -315 177 0 c198 0 184 -6 195 80 l7 50 -117 0 c-116
0 -116 0 -111 23 3 12 23 116 45 232 22 116 42 218 44 228 4 15 -4 17 -57 17
l-62 0 -61 -315z"/>
<path d="M5987 718 c-8 -32 -117 -594 -117 -602 0 -3 27 -6 60 -6 33 0 60 1
60 3 0 1 27 139 60 307 33 168 60 308 60 313 0 4 -27 7 -59 7 -53 0 -59 -2
-64 -22z"/>
<path d="M6124 425 l-61 -316 143 3 c140 3 143 3 186 33 113 80 152 231 81
315 -23 28 -24 34 -13 58 37 81 31 138 -20 187 -30 29 -35 30 -143 33 l-112 3
-61 -316z m234 149 c4 -37 -13 -53 -63 -61 -33 -5 -37 -4 -32 13 3 10 9 34 12
52 6 31 9 33 43 30 33 -3 37 -6 40 -34z m12 -204 c11 -11 20 -29 20 -40 0 -29
-26 -76 -45 -84 -23 -9 -135 -8 -135 2 0 6 11 56 25 120 5 19 12 22 60 22 42
0 60 -5 75 -20z"/>
<path d="M6614 425 l-60 -315 61 0 61 0 23 123 c13 67 26 126 29 131 2 4 28
-50 57 -120 l53 -129 75 -3 76 -3 -46 113 c-42 106 -44 113 -27 123 59 32 108
108 124 194 11 59 0 102 -39 145 -42 46 -78 56 -208 56 l-118 0 -61 -315z
m276 175 c44 -24 26 -116 -29 -144 -16 -9 -51 -16 -77 -16 -43 0 -46 2 -41 23
3 12 11 50 18 85 l12 62 49 0 c27 0 58 -4 68 -10z"/>
<path d="M7187 718 c-8 -32 -117 -594 -117 -602 0 -3 27 -6 60 -6 33 0 60 1
60 3 0 1 27 139 60 307 33 168 60 308 60 313 0 4 -27 7 -59 7 -53 0 -59 -2
-64 -22z"/>
</g>
</svg>
