<?xml version="1.0" standalone="no"?>
<!DOCTYPE svg PUBLIC "-//W3C//DTD SVG 20010904//EN"
 "http://www.w3.org/TR/2001/REC-SVG-20010904/DTD/svg10.dtd">
<svg version="1.0" xmlns="http://www.w3.org/2000/svg"
 width="255.000000pt" height="23.000000pt" viewBox="0 0 255.000000 23.000000"
 preserveAspectRatio="xMidYMid meet">

<g transform="translate(0.000000,23.000000) scale(0.100000,-0.100000)"
fill="#000000" stroke="none">
<path d="M30 115 c0 -95 0 -95 25 -95 25 0 25 0 25 95 0 95 0 95 -25 95 -25 0
-25 0 -25 -95z"/>
<path d="M100 115 c0 -94 0 -95 24 -95 22 0 25 5 28 46 l3 47 51 -47 c29 -25
55 -46 58 -46 3 0 6 43 6 95 0 94 0 95 -24 95 -23 0 -25 -5 -28 -47 l-3 -48
-51 48 c-28 26 -54 47 -58 47 -3 0 -6 -43 -6 -95z"/>
<path d="M290 115 c0 -95 0 -95 25 -95 25 0 25 0 25 95 0 95 0 95 -25 95 -25
0 -25 0 -25 -95z"/>
<path d="M398 194 c-33 -18 -48 -43 -48 -82 0 -75 100 -118 169 -73 12 8 13
12 1 25 -9 12 -22 15 -47 10 -35 -7 -73 15 -73 41 0 26 38 48 73 41 25 -5 38
-2 48 10 31 37 -66 60 -123 28z"/>
<path d="M560 115 c0 -95 0 -95 25 -95 25 0 25 0 25 95 0 95 0 95 -25 95 -25
0 -25 0 -25 -95z"/>
<path d="M672 125 c-23 -47 -42 -90 -42 -95 0 -16 47 -11 54 5 3 9 18 15 36
15 18 0 33 -6 36 -15 4 -8 19 -15 34 -15 l29 0 -43 92 c-24 51 -47 93 -52 95
-5 2 -28 -35 -52 -82z"/>
<path d="M790 185 c0 -20 5 -25 25 -25 24 0 25 -2 25 -70 0 -68 1 -70 25 -70
24 0 25 2 25 70 0 68 1 70 25 70 20 0 25 5 25 25 0 24 -2 25 -75 25 -73 0 -75
-1 -75 -25z"/>
<path d="M960 115 c0 -95 0 -95 25 -95 25 0 25 0 25 95 0 95 0 95 -25 95 -25
0 -25 0 -25 -95z"/>
<path d="M1067 115 c26 -52 50 -95 53 -95 7 0 90 167 90 180 0 6 -11 10 -23
10 -18 0 -28 -10 -42 -40 -10 -22 -21 -40 -25 -40 -4 0 -15 18 -25 40 -15 33
-23 40 -46 40 l-29 0 47 -95z"/>
<path d="M1222 125 c-23 -47 -42 -90 -42 -95 0 -16 47 -11 54 5 3 9 18 15 36
15 18 0 33 -6 36 -15 4 -8 19 -15 34 -15 l29 0 -43 92 c-24 51 -47 93 -52 95
-5 2 -28 -35 -52 -82z"/>
<path d="M1498 194 c-33 -18 -48 -43 -48 -82 0 -75 100 -118 169 -73 12 8 13
12 1 25 -9 12 -22 15 -47 10 -35 -7 -73 15 -73 41 0 26 38 48 73 41 25 -5 38
-2 48 10 31 37 -66 60 -123 28z"/>
<path d="M1668 194 c-45 -24 -62 -79 -38 -125 13 -24 61 -49 95 -49 34 0 82
25 95 49 5 11 10 32 10 46 0 75 -89 119 -162 79z m94 -51 c22 -20 23 -31 1
-55 -20 -22 -51 -23 -75 -1 -22 20 -23 31 -1 55 20 22 51 23 75 1z"/>
<path d="M1850 115 l0 -95 71 0 c67 0 70 1 67 23 -2 18 -10 23 -45 25 l-43 3
0 70 c0 67 -1 69 -25 69 -25 0 -25 0 -25 -95z"/>
<path d="M2000 115 c0 -95 0 -95 25 -95 25 0 25 0 25 95 0 95 0 95 -25 95 -25
0 -25 0 -25 -95z"/>
<path d="M2070 115 l0 -95 53 0 c64 0 97 20 97 59 0 16 -7 34 -15 41 -8 7 -15
22 -15 35 0 33 -31 55 -78 55 l-42 0 0 -95z m70 41 c0 -3 -4 -8 -10 -11 -5 -3
-10 -1 -10 4 0 6 5 11 10 11 6 0 10 -2 10 -4z m28 -73 c2 -8 -6 -13 -22 -13
-17 0 -26 5 -26 16 0 19 41 16 48 -3z"/>
<path d="M2230 115 c0 -95 0 -95 25 -95 21 0 25 5 25 33 l1 32 27 -33 c19 -22
36 -32 55 -32 l29 0 -20 33 c-18 28 -19 34 -6 51 20 28 17 63 -6 86 -15 15
-33 20 -75 20 l-55 0 0 -95z m95 25 c0 -8 -10 -16 -22 -18 -18 -3 -23 2 -23
18 0 16 5 21 23 18 12 -2 22 -10 22 -18z"/>
<path d="M2410 115 c0 -95 0 -95 25 -95 25 0 25 0 25 95 0 95 0 95 -25 95 -25
0 -25 0 -25 -95z"/>
</g>
</svg>
